<?xml version="1.0" encoding="UTF-8"?>
<svg id="Layer_1" data-name="Layer 1" xmlns="http://www.w3.org/2000/svg" viewBox="0 0 559.39 401.2">
  <defs>
    <style>
      .cls-1 {
        fill: #e07731;
      }

      .cls-2 {
        fill: none;
        stroke: #e07731;
        stroke-miterlimit: 10;
        stroke-width: 4px;
      }
    </style>
  </defs>
  <path class="cls-1" d="M363.22,149.93c-10.03,5.77-19.58-9.39-5.88-23.22,11.21-7.23,17.8-21.21,9.91-34.8-.07,16.71-23.77,14.55-16.61-7.25,8.6-15,17.73-14.32,13.98-26.89-7.1,12.91-41.12,12.37-37.2,33.35,.3,2.03,1.31,4.76,2.58,7.86-4.38,7.37-11.6,14.52-18.93,6.74-9.47-12.09,14.42-36.91,19.22-48.88,12.04-22.65-20.84-38.58-23-56.84-7.9,13.84,.48,17.5,3.45,40.08-1.37,31.83-24.63,24.01-18.31,3.47-11.64,12.85-11.51,36.28-3.26,48.91,5.86,16.38-.61,30.99-7.63,31.72-7.02-.74-13.5-15.34-7.64-31.72,8.26-12.63,8.4-36.07-3.25-48.91,6.31,20.54-16.95,28.37-18.31-3.47,2.98-22.58,11.36-26.24,3.45-40.08-2.16,18.25-35.04,34.21-23,56.84,4.81,11.97,28.69,36.79,19.22,48.88-7.34,7.73-14.57,.64-18.96-6.73,1.28-3.1,2.29-5.84,2.59-7.88,3.93-20.99-30.09-20.42-37.18-33.35-3.75,12.57,5.38,11.89,13.98,26.89,7.14,21.8-16.56,23.96-16.61,7.25-7.89,13.58-1.3,27.56,9.91,34.8,13.69,13.81,4.15,28.98-5.88,23.22,11.67,7.64-5.09,23.85,1.67,34.63h13.67c12.63-12.54,47.12-9.99,46.96-11.08l17.9-.24,20.89,.24c-.16,1.09,15.49-4.18,42.44,11.08h18.19c6.76-10.78-10.01-26.99,1.67-34.63Zm-120.49-10.18c-.1-.61,1.67-3.54,3.7-7.26,.67,5.57-.16,11.25-3.82,14.44-.4-2.2-.37-4.64,.12-7.18Zm-12.12-34.93c5.17,8.33,13,16.93,13.12,17.94,.3,.66,.59,1.34,.86,2.06-2.87,4.61-7.58,7.89-14.35,5.32-7.97-3.77-3.86-15.22,.37-25.32Zm89.86,42.13c-3.66-3.18-4.49-8.87-3.84-14.44,2.03,3.75,3.79,6.69,3.71,7.25,.49,2.55,.52,5,.12,7.19Zm12.37-16.8c-6.77,2.55-11.48-.71-14.35-5.31,.27-.72,.56-1.42,.86-2.07,.14-1.13,7.94-9.65,13.12-17.92,4.23,10.09,8.34,21.54,.37,25.31Z"/>
  <path class="cls-2" d="M280.04,173.24c20.63-2.15,39.24-1.92,58.17,8.25,15.02,8.07,30.97-.83,45.12-7.78,14.38-7.07,27.33-15.85,40.45-25.59,13.03-9.68,26.51-18.28,41.74-22.33,22.53-6,47.51-4.23,70.26-1.45,4.35,.53,8.68,1.31,12.99,2.22,2.4,.51,5.64,1.03,7.5,2.71,4.66,4.2-6.62,6.2-8.75,6.74-3.15,.8-5.94,1.07-9.23,1.74l-4.63,.48s-.06,0-.1,0c-26.72,.8-49.63,5.26-71.96,22.41-24.82,20.03-44.68,44.35-72.99,56.01,4.66,.44,7.6-4.06,0,0,7.33,1.04,30.47,5.93,21.96,20.17-7.31,12.24-25,15.5-36.75,15.56-10.2,.05-20.43-2.54-29.51-7.94,2.62,14.21-6.1,27.99-12.83,38.87-3.82,6.16-7.84,12.19-11.28,18.64-2.67,5.01-6.03,11.04-6.39,17.04-.76,12.7,7.66,23.82,9.64,35.97,.99,6.06,.42,11.49-3.18,16.07s-6.56,9.31-9.98,13.83c-7.52,9.92-16.87,18.61-29.35,10.54h0c-11.17,9.49-24.34-.55-31.86-10.47-3.42-4.52-6.49-9.38-9.98-13.83s-4.17-10.01-3.18-16.07c1.98-12.15,10.39-23.26,9.64-35.97-.36-5.99-3.72-12.03-6.39-17.04-3.44-6.46-7.46-12.48-11.28-18.64-6.74-10.88-15.45-24.66-12.83-38.87-9.09,5.4-19.31,7.99-29.51,7.94-11.75-.06-29.44-3.33-36.75-15.56-8.51-14.24,14.64-19.13,21.96-20.17-7.6-4.06-4.66,.44,0,0-28.31-11.66-48.16-35.98-72.99-56.01-22.33-17.16-45.24-21.61-71.96-22.41-.04,0-.06,0-.1,0l-4.63-.48c-3.29-.66-6.08-.94-9.23-1.74-2.13-.54-13.41-2.54-8.75-6.74,1.86-1.68,5.1-2.2,7.5-2.71,4.31-.91,8.64-1.69,12.99-2.22,22.74-2.78,47.73-4.55,70.26,1.45,15.23,4.06,28.71,12.66,41.74,22.33,13.12,9.74,26.07,18.52,40.45,25.59,14.16,6.96,30.1,15.86,45.12,7.78,18.93-10.17,37.88-10.5,58.52-8.35l.34,.04Z"/>
</svg>