<?xml version="1.0" encoding="UTF-8"?>
<svg id="Layer_1" data-name="Layer 1" xmlns="http://www.w3.org/2000/svg" viewBox="0 0 552.87 429.81">
  <defs>
    <style>
      .cls-1 {
        fill: #e07731;
      }

      .cls-2 {
        fill: none;
        stroke: #e07731;
        stroke-miterlimit: 10;
        stroke-width: 4px;
      }
    </style>
  </defs>
  <g>
    <path class="cls-1" d="M286.63,119.76c.52,.62,1.16,.79,1.94,.57,2.18-.62,4.24-1.53,6.27-2.53,.54-.27,.57-.35,.22-.83-1.58-2.2-3.29-4.31-4.71-6.62-.68-1.1-1.36-2.22-1.87-3.41,1.24,4.42-1.25,7.73-5.25,10.18,1.33,.6,2.45,1.5,3.4,2.63Z"/>
    <path class="cls-1" d="M296.12,90.13c.57-1.23,1.07-2.4,.27-2.7s-1.4,.21-2.03,.35c-.8,.18-1.59-.55-1.78-1-.1-.23-.25-.54-.21-1.25,.03-.61,.13-1.09,.24-1.7,.02-.12-.46,1.35-.5,1.55-.14,.77-.41,2.14,.05,2.83,.59,.87,1.24,.87,1.97,.56,.92-.39,1.54-.45,1.35,1.23-.1,.9-.44,1.65-.64,2.1-.62,1.33-.19,2.51,.53,2.94,.97,.58,2.26-.75,2.26-.75-1,.2-1.21,.16-1.21,.16-.66-.08-.85-.3-1-.87-.25-.91,.05-2.14,.69-3.46Z"/>
    <path class="cls-1" d="M297.64,88.05c.04-.17-.67,1.02-.72,1.15-.25,.73-.7,1.88-.46,2.65s.37,1.22,1.18,1.83c.67,.51,1.15,1.13,1.26,1.69,.18,.94-.11,1.54-1.69,1.96,.42,.01,1.13-.17,1.26-.23,1.18-.56,1.37-1.78,.89-2.76-.45-.93-1.33-1.07-1.72-1.46-.65-.65-.73-1.21-.65-1.52,1.01,1.93,3.03,.89,3.16,4.22,.12-.31,.28-1.4,.25-1.68-.17-1.69-.77-1.45-1.79-1.9s-1.52-.88-1.33-2.32c.02-.14,.11-.42,.36-1.64Z"/>
    <path class="cls-1" d="M305.43,80.52c-4.94-3.74-13.28-6.73-16.84-1.15,2.29-6.55,6.52-13.32,13.98-19.02-21.39,16.66,13.68,29.25,15.37-10-3.72-28.34-14.28-32.95-4.35-50.35,.57,4.89-6.23,15.57,12.72,45.89,3.34,5.35-5.56-18.69,.67-29.32-4.85,15.46,16.35,34.31,14.16,55.94-1.53,22.69-21.75,39.17-26.46,39.4,7.75-4.75,3.26-18.84-3.33-26.33l-1.91-1.81c-.92-.81-1.55-1.34-2.41-1.9l-1.62-1.35Z"/>
    <path class="cls-1" d="M302.59,83.38c-.38,2.67,1.63,3.6,1.63,3.6,1.29,.93,2.99,1.4-.34,5.13,3.62-4.06-3.93-4.85-.94-9.97"/>
    <path class="cls-1" d="M295.26,80.89c-3.95,3.32-.41,6.72,5.14,6.88-2.88-.08-8.29-2.35-5.14-6.88Z"/>
    <path class="cls-1" d="M298.27,101c-1.47-.51-2.98-1.85-2.77-4.72-.22,3.04,7.61,6.24,6.32,1.7,1,3.53-2.07,3.65-3.55,3.02Z"/>
    <path class="cls-1" d="M291.85,163.38c2.52,1.05,5.12,1.26,7.78,.71,1.08-.22,2.15-.49,3.18-1.17-.41-.06-.7-.1-1-.13-.12-.02-.24-.02-.36-.03-2.13-.22-4.18-.73-6.12-1.65-.91-.43-1.74-1.01-2.43-1.75-.29-.32-.65-.3-.99-.19-.31,.1-.19,.39-.19,.62-.01,.58-.17,1.12-.49,1.61-.22,.32-.41,.66-.63,.98-.2,.29-.1,.46,.16,.62,.34,.21,.74,.24,1.09,.39Z"/>
    <path class="cls-1" d="M296.02,141.47c3.31,.33,5.62,2.11,7.15,4.99,.39,.74,.52,1.54,.24,2.41,.02,0,.02,0,.04-.01,0,0,.02,0,.02-.02,0,0,0,0,0,.01,.06-.02,.11-.03,.13-.05,.9-1.06,1.81-2.12,2.52-3.33,.31-.54,.32-1.07,.02-1.62-.59-1.08-1.07-2.21-1.37-3.41-.13-.55-.3-1.1-.17-1.68,.16-.74,.62-1.28,1.14-1.79,.52-.51,.56-.79,.23-1.44-.38-.76-.78-1.52-1.13-2.29-.96-2.1-2.21-4.05-3.25-6.1-.66-1.31-1.33-2.62-2.19-3.81-.42-.59-.65-.66-1.29-.38-1.94,.86-3.96,1.52-5.93,2.3-.23,.09-.44,.18-.62,.35-.34,.35-.71,.66-1.28,.64,.81,.14,1.16,.72,1.47,1.35,.06,.13,.18,.24,.28,.35,.35,.41,.73,.79,1.06,1.22,.75,.97,1.02,2.06,.64,3.26-.28,.87-.89,1.52-1.5,2.16-.22,.24-.63,.42-.2,.83,.05,.04,0,.18,.02,.26,.11,.32,.12,.82,.51,.83,.61,.01,.65,.41,.74,.81,.24,1.07,.51,2.13,.65,3.21,.08,.59,.4,.85,1.01,.89,.36,.02,.72,.03,1.08,.07Z"/>
    <path class="cls-1" d="M308.6,98.32c1.02,1.57,1.87,3.85,.9,4.31,1.03-.35,1.12,0,1.85-.23,.39-.13,.59-.36,.14-1.32-.38-.81-.7-.94-1.6-1.8l-1.28-.96Z"/>
    <path class="cls-1" d="M309.11,97.88s.44,.33,.92,.82c0,0,.53,.42,1.08,1.02,1.38,1.49,1.64,2.1,1.62,3.41-.02,1.08-.72,1.61-1.79,1.47-.14-.02-.27-.12-.42-.01,.57,.75,1.72,1.48,2.66,1.08,.8-.34,1.14-.99,1.27-1.69,.32-1.73-1.48-2.72-2.39-3.75-.99-1.12-2.35-2.13-3.36-3.2-.75-.8-1.59-1.33-1.66-2.47-.06-.93,.27-1.2,.66-2.03,.17-.37,1-.77,1.17-1.65,.14-.74,.04-1.27-.47-1.83-.09-.09-1.32-1.01-1.32-1.01,0,0,.27,.74,.35,.86,.59,.92,1.18,1.74-.35,3.2-.42,.4-3.23,1.9-3.04,3.5,.27,2.19,1.8,3.24,2.33,3.12,1.76-.42,.51-2.46,.51-2.46,.13,0,.22-.03,1.33,.88"/>
    <path class="cls-1" d="M351.95,216.79l-49.14-10.57c-15.15-3.15-35.71-2.7-51.94-.04l-40.67,11.89-18.39-2.44c9.3-15.46,2.7-17.43-7.37-22.36,13.39,5.16,22.44-15.26,3.1-29.99-15.21-7.07-25.83-23.33-18.36-41.59,2.98,20.77,32.09,13.99,19.43-11.91-13.3-17.17-24.54-14.73-22.06-31.04,11.08,14.85,53.31,8.28,52.05,35.07-.07,11.77-16.23,44.38,.02,49.47,4.85,1.1,8.62,.14,11.51-1.98-3.84-6.52-17.95-28.17-1.03-47.84-9.22,11.72,2.26,24.47,10.03,10.05,1.65-3.06,8.52-17.8,7.48-16.56-3.2,3.83-4.68,5.28-7.95,5.19-8.56-.23-25.35-15.95-26.95-39.39-.88-13.27,1.03-16.86,4.97-22.75,11.17-16.71,9.19-33.21,9.19-33.21,6.23,10.62-2.67,34.69,.69,29.32C245.51,15.78,238.69,5.13,239.26,.24c9.93,17.4-.6,21.99-4.32,50.35,1.67,39.23,36.77,26.64,15.37,9.98,21.27,16.26,16.35,41.23,14.61,45.1-2.22,4.99,.1,8.67,4.22,11.37-1.18,.56-2.25,1.32-3.17,2.29-.34,.36-.72,.59-1.23,.5-3.1-.51-5.93-1.74-8.6-3.35-.7-.42-.77-.81-.39-1.55,.06-.11,.11-.22,.18-.31,1.05-1.39,1.78-2.97,2.81-4.37,.57-.78,1.06-1.61,1-2.64-.02-.29,.11-.66-.21-.82-.3-.15-.56,.14-.8,.29-1.98,1.29-3.69,2.92-5.41,4.52-1.33,1.24-2.53,2.6-3.5,4.14-1.03,1.64-.53,3.8,1.08,4.87,1.7,1.13,3.54,1.99,5.44,2.74,1.18,.46,2.39,.86,3.58,1.3,.49,.18,.56,.39,.25,.71-.7,.7-1.24,1.54-1.88,2.29-1.1,1.3-.84,3.37,.53,4.34,.24,.17,.16,.28,0,.41-.36,.29-.75,.56-1.08,.88-.49,.46-1.15,.84-1.29,1.52-.12,.62-.4,1.12-.71,1.62-.23,.37-.37,.72-.3,1.17,.05,.32,.02,.66-.11,.97-.18,.42-.12,.82,.11,1.2,.25,.42,.3,.87,.15,1.34-.07,.21-.1,.43-.12,.66-.08,.77-.77,1.61-1.5,1.76-1.84,.38-3.3,1.36-4.54,2.72-.61,.67-1.15,1.38-1.42,2.26-.04,.13-.1,.25-.23,.32-.14,.07-.21,.21-.29,.34-.77,1.29-.08,2.6,1.4,2.63,.99,.02,1.98,0,2.97,.04,.68,.02,.76,.2,.71,.87-.13,1.66-.44,3.31,.27,4.96,.58,1.36,.89,2.8,2.02,3.93,.66,.66,1.23,1.49,1.8,2.28,.56,.77,1.31,1.1,2.29,1.07,.92-.03,1.86-.16,2.76,.16,.22,.08,.45,.06,.67,0,.38-.1,.76-.14,1.15-.15,.63-.02,1.25-.04,1.87-.2,.46-.12,.89,.07,1.21,.42,.31,.33,.64,.66,1.05,.84,.93,.41,1.29,1.2,1.49,2.11,.05,.2,.07,.44-.17,.48-.35,.06-.34,.28-.32,.53,.05,.6,.17,1.19,.17,1.79,0,.47,.23,.94,.08,1.39-.52,1.67-.96,3.37-1.39,5.07-.15,.57-.26,1.15-.13,1.73,.1,.45,.28,.85,.86,.87,.28,0,.95,.75,.97,1.03,.02,.29,.04,.54-.38,.67-.41,.13-.79,.46-.88,.9-.14,.72-.21,1.51,.04,2.17,.15,.39,.1,.48-.14,.68-.2,.17-.42,.28-.65,.38-.64,.29-1.24,.67-1.76,1.15-1.1,1.01-1.3,2.39-1.48,3.76-.09,.69,.11,1.26,.8,1.57h4.41c.42-.18,.87-.11,1.3-.17,1.42-.2,2.64-.72,3.25-2.13,.43-1,.72-2.03,.72-3.13,0-.31,.08-.58,.34-.8,.28-.24,.37-.57,.41-.92,.13-1.16,.2-2.34,.89-3.37,.29-.43,.49-.94,.63-1.44,.2-.75,.89-.94,1.41-1.48,0,.46-.04,.79,0,1.11,.08,.58-.11,1.02-.55,1.38-.71,.6-.74,2.4-.07,3.03,.03,.03,.07,.06,.11,.08,.28,.14,.32,.36,.32,.67-.01,1.12-.09,2.25,.04,3.37,.06,.55,.5,.99,1.05,.99,1.44-.01,2.86,.3,4.3,.2,.44-.03,.86,.08,1.29,.14,.69,.1,1.38,.1,2.07-.02,.81-.14,1.24-.98,.9-1.73-.7-1.54-1.9-2.43-3.52-2.81-.49-.12-.49-.14-.18-.52,.55-.69,.8-1.43,.43-2.3-.09-.21-.09-.45,.01-.66,.48-.94,.84-1.92,1.18-2.91,.08-.23,.22-.39,.49-.38,.46,.02,.71-.25,.95-.63,.81-1.3,1.05-2.79,1.42-4.24,.12-.46,.07-.96,.59-1.22,.08-.04,.14-.16,.18-.25,.46-1.12,.74-2.27,.45-3.5-.05-.22-.13-.44,.07-.63,.22-.22,.44-.08,.66,0,2.14,.78,4.28,1.56,6.58,1.68,1.09,.06,2.17,.37,3.26,.13,.63-.13,1.27-.17,1.9-.25,.83-.12,1.64-.3,2.44-.54,2.14-.64,5.32-2.37,7.04-3.8,1.54-1.29,2.88-2.74,3.96-4.42,2.07-3.21,3.19-6.78,3.93-10.49,.33-1.68,.27-3.4,.27-5.11-.01-2.97-.47-5.9-1.07-8.78-1.01-4.81-2.85-9.26-5.07-13.54,.07,.12,.14,.24,.2,.35,8.05,14.99,20.13,.69,8.88-11.34,18.72,20.01,4.01,42.54,.07,49.16,2.89,2.1,6.68,3.08,11.53,1.98,16.26-5.09,.12-37.72,.02-49.49-1.27-26.79,40.99-20.2,52.05-35.05,2.51,16.28-8.74,13.87-22.04,31.04-12.68,25.9,16.45,32.68,19.41,11.89,7.47,18.29-3.15,34.52-18.34,41.59-19.34,14.75-10.29,35.14,3.1,29.99-9.82,4.82-13.29,19.12-4.55,21.46l-11.94,2.31Z"/>
    <path class="cls-1" d="M313.02,107.26c-4.85-1.47-6.51-3.56-4.23-5.75-3.91,3.75-.2,5.68,4.23,5.75Z"/>
    <path class="cls-1" d="M260.59,139.63h0s0-.01,0-.01c0,0,0,0,0,.01,0,0,0,0,0,0Z"/>
    <path class="cls-1" d="M292.4,78.54c-1.23,0-2.18,.51-3.23,1.77s-1.26,2.39-1.43,3.84c-.28,2.45,.24,4.21,1.18,6.14,.68,1.4,2.35,3.62,4.65,3.86-.34-.2-1.28-.42-1.89-1.08-1.07-1.17-1.65-1.76-2.17-3.42-1.11-3.55-.25-6.27,.21-7.51,.3-.8,.71-2.08,2.59-3.24,.43-.26,1.13-.11,1.13-.11,0,0-.48-.25-1.04-.25Z"/>
    <path class="cls-1" d="M260.63,144.44c-.38-.8-.57-1.6-.57-2.4,0,.8,.19,1.6,.57,2.4Z"/>
  </g>
  <path class="cls-2" d="M276.77,204.51c20.39-2.12,38.78-1.9,57.49,8.16,14.85,7.98,30.6-.82,44.59-7.69,14.21-6.98,27.01-15.66,39.97-25.29,12.88-9.56,26.2-18.06,41.25-22.07,22.27-5.93,46.95-4.18,69.43-1.43,4.3,.53,8.58,1.29,12.84,2.2,2.37,.5,5.57,1.02,7.42,2.68,4.61,4.16-6.54,6.13-8.64,6.66-3.11,.79-5.87,1.06-9.12,1.71l-4.58,.47s-.06,0-.1,0c-26.4,.79-49.05,5.19-71.11,22.15-24.53,19.79-44.16,43.83-72.13,55.35,4.6,.43,7.51-4.01,0,0,7.24,1.03,30.11,5.86,21.71,19.93-7.22,12.09-24.7,15.32-36.32,15.38-10.08,.05-20.19-2.51-29.17-7.85,2.59,14.04-6.02,27.66-12.68,38.41-3.77,6.09-7.74,12.04-11.14,18.43-2.64,4.95-5.96,10.91-6.31,16.84-.75,12.55,7.57,23.54,9.52,35.54,.97,5.99,.41,11.35-3.15,15.88-3.45,4.39-6.48,9.2-9.87,13.66-7.43,9.8-16.67,18.39-29.01,10.41h0c-11.04,9.38-24.05-.55-31.48-10.35-3.38-4.46-6.42-9.27-9.87-13.66-3.56-4.53-4.12-9.89-3.15-15.88,1.95-12,10.27-22.99,9.52-35.54-.35-5.92-3.67-11.89-6.31-16.84-3.4-6.38-7.37-12.34-11.14-18.43-6.66-10.75-15.27-24.37-12.68-38.41-8.98,5.34-19.08,7.9-29.17,7.85-11.61-.06-29.09-3.29-36.32-15.38-8.41-14.07,14.46-18.9,21.71-19.93-7.51-4.01-4.6,.43,0,0-27.97-11.52-47.6-35.56-72.13-55.35-22.06-16.95-44.71-21.36-71.11-22.15-.04,0-.06,0-.1,0l-4.58-.47c-3.25-.65-6.01-.93-9.12-1.71-2.11-.53-13.25-2.51-8.64-6.66,1.84-1.66,5.04-2.18,7.42-2.68,4.26-.9,8.54-1.67,12.84-2.2,22.48-2.75,47.17-4.49,69.43,1.43,15.05,4.01,28.37,12.51,41.25,22.07,12.96,9.62,25.76,18.3,39.97,25.29,13.99,6.88,29.75,15.67,44.59,7.69,18.71-10.05,37.44-10.38,57.83-8.26l.34,.04Z"/>
</svg>